<?xml version="1.0" standalone="no"?>
<svg xmlns:xlink="http://www.w3.org/1999/xlink" id="wave" style="transform:rotate(0deg); transition: 0.3s" viewBox="0 0 1440 240" version="1.1" xmlns="http://www.w3.org/2000/svg"><defs><linearGradient id="sw-gradient-0" x1="0" x2="0" y1="1" y2="0"><stop stop-color="rgba(255, 255, 255, 1)" offset="0%"/><stop stop-color="rgba(255, 255, 255, 1)" offset="100%"/></linearGradient></defs><path style="transform:translate(0, 0px); opacity:1" fill="url(#sw-gradient-0)" d="M0,48L80,56C160,64,320,80,480,108C640,136,800,176,960,164C1120,152,1280,88,1440,80C1600,72,1760,120,1920,132C2080,144,2240,120,2400,128C2560,136,2720,176,2880,188C3040,200,3200,184,3360,160C3520,136,3680,104,3840,104C4000,104,4160,136,4320,128C4480,120,4640,72,4800,72C4960,72,5120,120,5280,152C5440,184,5600,200,5760,184C5920,168,6080,120,6240,120C6400,120,6560,168,6720,168C6880,168,7040,120,7200,116C7360,112,7520,152,7680,176C7840,200,8000,208,8160,184C8320,160,8480,104,8640,80C8800,56,8960,64,9120,56C9280,48,9440,24,9600,12C9760,0,9920,0,10080,36C10240,72,10400,144,10560,164C10720,184,10880,152,11040,144C11200,136,11360,152,11440,160L11520,168L11520,240L11440,240C11360,240,11200,240,11040,240C10880,240,10720,240,10560,240C10400,240,10240,240,10080,240C9920,240,9760,240,9600,240C9440,240,9280,240,9120,240C8960,240,8800,240,8640,240C8480,240,8320,240,8160,240C8000,240,7840,240,7680,240C7520,240,7360,240,7200,240C7040,240,6880,240,6720,240C6560,240,6400,240,6240,240C6080,240,5920,240,5760,240C5600,240,5440,240,5280,240C5120,240,4960,240,4800,240C4640,240,4480,240,4320,240C4160,240,4000,240,3840,240C3680,240,3520,240,3360,240C3200,240,3040,240,2880,240C2720,240,2560,240,2400,240C2240,240,2080,240,1920,240C1760,240,1600,240,1440,240C1280,240,1120,240,960,240C800,240,640,240,480,240C320,240,160,240,80,240L0,240Z"/></svg>